<mxfile host="65bd71144e">
    <diagram id="mRTkF5h-hfggiwhOe0ea" name="Страница 3">
        <mxGraphModel dx="1638" dy="647" grid="1" gridSize="10" guides="1" tooltips="1" connect="1" arrows="1" fold="1" page="1" pageScale="1" pageWidth="827" pageHeight="1169" math="0" shadow="0">
            <root>
                <mxCell id="DMlHOETDV7XkjLK8qEzX-0"/>
                <mxCell id="DMlHOETDV7XkjLK8qEzX-1" parent="DMlHOETDV7XkjLK8qEzX-0"/>
                <mxCell id="DMlHOETDV7XkjLK8qEzX-2" value="Actor" style="shape=umlActor;verticalLabelPosition=bottom;verticalAlign=top;html=1;outlineConnect=0;" parent="DMlHOETDV7XkjLK8qEzX-1" vertex="1">
                    <mxGeometry x="20" y="810" width="30" height="60" as="geometry"/>
                </mxCell>
                <mxCell id="DMlHOETDV7XkjLK8qEzX-6" value="" style="whiteSpace=wrap;html=1;aspect=fixed;" parent="DMlHOETDV7XkjLK8qEzX-1" vertex="1">
                    <mxGeometry x="160" y="370" width="180" height="180" as="geometry"/>
                </mxCell>
                <mxCell id="DMlHOETDV7XkjLK8qEzX-13" value="Actor" style="shape=umlActor;verticalLabelPosition=bottom;verticalAlign=top;html=1;outlineConnect=0;" parent="DMlHOETDV7XkjLK8qEzX-1" vertex="1">
                    <mxGeometry y="1017.5" width="30" height="60" as="geometry"/>
                </mxCell>
                <mxCell id="DMlHOETDV7XkjLK8qEzX-16" value="" style="whiteSpace=wrap;html=1;aspect=fixed;" parent="DMlHOETDV7XkjLK8qEzX-1" vertex="1">
                    <mxGeometry x="460" y="470" width="190" height="190" as="geometry"/>
                </mxCell>
                <mxCell id="X07TaIWTasU2zoOHf2z8-1" value="" style="rounded=1;whiteSpace=wrap;html=1;" parent="DMlHOETDV7XkjLK8qEzX-1" vertex="1">
                    <mxGeometry x="505" y="600" width="120" height="35" as="geometry"/>
                </mxCell>
                <mxCell id="X07TaIWTasU2zoOHf2z8-2" value="" style="rounded=1;whiteSpace=wrap;html=1;" parent="DMlHOETDV7XkjLK8qEzX-1" vertex="1">
                    <mxGeometry x="505" y="550" width="120" height="34.5" as="geometry"/>
                </mxCell>
                <mxCell id="X07TaIWTasU2zoOHf2z8-4" value="" style="rounded=1;whiteSpace=wrap;html=1;" parent="DMlHOETDV7XkjLK8qEzX-1" vertex="1">
                    <mxGeometry x="505" y="500" width="120" height="40" as="geometry"/>
                </mxCell>
                <mxCell id="X07TaIWTasU2zoOHf2z8-5" value="opt-nomenclature" style="text;html=1;strokeColor=none;fillColor=none;align=center;verticalAlign=middle;whiteSpace=wrap;rounded=0;" parent="DMlHOETDV7XkjLK8qEzX-1" vertex="1">
                    <mxGeometry x="530" y="602.5" width="70" height="30" as="geometry"/>
                </mxCell>
                <mxCell id="X07TaIWTasU2zoOHf2z8-6" value="opt-nomenclature" style="text;html=1;strokeColor=none;fillColor=none;align=center;verticalAlign=middle;whiteSpace=wrap;rounded=0;" parent="DMlHOETDV7XkjLK8qEzX-1" vertex="1">
                    <mxGeometry x="525" y="555" width="70" height="30" as="geometry"/>
                </mxCell>
                <mxCell id="X07TaIWTasU2zoOHf2z8-7" value="opt-nomenclature" style="text;html=1;strokeColor=none;fillColor=none;align=center;verticalAlign=middle;whiteSpace=wrap;rounded=0;" parent="DMlHOETDV7XkjLK8qEzX-1" vertex="1">
                    <mxGeometry x="525" y="505" width="70" height="30" as="geometry"/>
                </mxCell>
                <mxCell id="X07TaIWTasU2zoOHf2z8-8" value="" style="rounded=1;whiteSpace=wrap;html=1;" parent="DMlHOETDV7XkjLK8qEzX-1" vertex="1">
                    <mxGeometry x="190" y="490" width="120" height="35" as="geometry"/>
                </mxCell>
                <mxCell id="X07TaIWTasU2zoOHf2z8-9" value="" style="rounded=1;whiteSpace=wrap;html=1;" parent="DMlHOETDV7XkjLK8qEzX-1" vertex="1">
                    <mxGeometry x="190" y="442.5" width="120" height="35" as="geometry"/>
                </mxCell>
                <mxCell id="X07TaIWTasU2zoOHf2z8-10" value="" style="rounded=1;whiteSpace=wrap;html=1;" parent="DMlHOETDV7XkjLK8qEzX-1" vertex="1">
                    <mxGeometry x="190" y="385" width="120" height="35" as="geometry"/>
                </mxCell>
                <mxCell id="X07TaIWTasU2zoOHf2z8-11" value="nomenclature" style="text;html=1;strokeColor=none;fillColor=none;align=center;verticalAlign=middle;whiteSpace=wrap;rounded=0;" parent="DMlHOETDV7XkjLK8qEzX-1" vertex="1">
                    <mxGeometry x="220" y="490" width="60" height="30" as="geometry"/>
                </mxCell>
                <mxCell id="X07TaIWTasU2zoOHf2z8-12" value="nomenclature" style="text;html=1;strokeColor=none;fillColor=none;align=center;verticalAlign=middle;whiteSpace=wrap;rounded=0;" parent="DMlHOETDV7XkjLK8qEzX-1" vertex="1">
                    <mxGeometry x="220" y="440" width="60" height="30" as="geometry"/>
                </mxCell>
                <mxCell id="X07TaIWTasU2zoOHf2z8-13" value="nomenclature" style="text;html=1;strokeColor=none;fillColor=none;align=center;verticalAlign=middle;whiteSpace=wrap;rounded=0;" parent="DMlHOETDV7XkjLK8qEzX-1" vertex="1">
                    <mxGeometry x="220" y="390" width="60" height="30" as="geometry"/>
                </mxCell>
                <mxCell id="X07TaIWTasU2zoOHf2z8-22" style="edgeStyle=none;html=1;entryX=0.5;entryY=0;entryDx=0;entryDy=0;entryPerimeter=0;" parent="DMlHOETDV7XkjLK8qEzX-1" source="X07TaIWTasU2zoOHf2z8-14" target="DMlHOETDV7XkjLK8qEzX-13" edge="1">
                    <mxGeometry relative="1" as="geometry">
                        <mxPoint x="60" y="910" as="targetPoint"/>
                    </mxGeometry>
                </mxCell>
                <mxCell id="X07TaIWTasU2zoOHf2z8-14" value="Реализатор" style="text;html=1;strokeColor=none;fillColor=none;align=center;verticalAlign=middle;whiteSpace=wrap;rounded=0;" parent="DMlHOETDV7XkjLK8qEzX-1" vertex="1">
                    <mxGeometry x="5" y="920" width="60" height="30" as="geometry"/>
                </mxCell>
                <mxCell id="X07TaIWTasU2zoOHf2z8-17" style="edgeStyle=none;html=1;entryX=0.75;entryY=0.1;entryDx=0;entryDy=0;entryPerimeter=0;" parent="DMlHOETDV7XkjLK8qEzX-1" source="X07TaIWTasU2zoOHf2z8-15" target="DMlHOETDV7XkjLK8qEzX-2" edge="1">
                    <mxGeometry relative="1" as="geometry"/>
                </mxCell>
                <mxCell id="X07TaIWTasU2zoOHf2z8-15" value="Покупатель" style="text;html=1;strokeColor=none;fillColor=none;align=center;verticalAlign=middle;whiteSpace=wrap;rounded=0;" parent="DMlHOETDV7XkjLK8qEzX-1" vertex="1">
                    <mxGeometry x="10" y="730" width="60" height="30" as="geometry"/>
                </mxCell>
                <mxCell id="1" value="" style="whiteSpace=wrap;html=1;aspect=fixed;" parent="DMlHOETDV7XkjLK8qEzX-1" vertex="1">
                    <mxGeometry x="80" y="930" width="160" height="160" as="geometry"/>
                </mxCell>
                <mxCell id="3" value="" style="rounded=1;whiteSpace=wrap;html=1;" parent="DMlHOETDV7XkjLK8qEzX-1" vertex="1">
                    <mxGeometry x="100" y="945" width="120" height="35" as="geometry"/>
                </mxCell>
                <mxCell id="21" style="edgeStyle=none;html=1;entryX=1;entryY=0.75;entryDx=0;entryDy=0;" parent="DMlHOETDV7XkjLK8qEzX-1" target="3" edge="1">
                    <mxGeometry relative="1" as="geometry">
                        <mxPoint x="220" y="971" as="sourcePoint"/>
                    </mxGeometry>
                </mxCell>
                <mxCell id="4" value="" style="rounded=1;whiteSpace=wrap;html=1;" parent="DMlHOETDV7XkjLK8qEzX-1" vertex="1">
                    <mxGeometry x="100" y="982.5" width="120" height="35" as="geometry"/>
                </mxCell>
                <mxCell id="5" value="" style="rounded=1;whiteSpace=wrap;html=1;" parent="DMlHOETDV7XkjLK8qEzX-1" vertex="1">
                    <mxGeometry x="100" y="1025" width="120" height="35" as="geometry"/>
                </mxCell>
                <mxCell id="6" value="" style="shape=flexArrow;endArrow=classic;html=1;entryX=0;entryY=0.75;entryDx=0;entryDy=0;exitX=0.5;exitY=0.5;exitDx=0;exitDy=0;exitPerimeter=0;fillColor=#60a917;strokeColor=#2D7600;" parent="DMlHOETDV7XkjLK8qEzX-1" source="DMlHOETDV7XkjLK8qEzX-13" target="1" edge="1">
                    <mxGeometry width="50" height="50" relative="1" as="geometry">
                        <mxPoint x="35" y="1010" as="sourcePoint"/>
                        <mxPoint x="380" y="970" as="targetPoint"/>
                    </mxGeometry>
                </mxCell>
                <mxCell id="7" value="opt-categoriaItem" style="text;html=1;strokeColor=none;fillColor=none;align=center;verticalAlign=middle;whiteSpace=wrap;rounded=0;" parent="DMlHOETDV7XkjLK8qEzX-1" vertex="1">
                    <mxGeometry x="120" y="945" width="70" height="30" as="geometry"/>
                </mxCell>
                <mxCell id="8" value="opt-categoriaItem" style="text;html=1;strokeColor=none;fillColor=none;align=center;verticalAlign=middle;whiteSpace=wrap;rounded=0;" parent="DMlHOETDV7XkjLK8qEzX-1" vertex="1">
                    <mxGeometry x="125" y="985" width="70" height="30" as="geometry"/>
                </mxCell>
                <mxCell id="9" value="opt-categoriaItem" style="text;html=1;strokeColor=none;fillColor=none;align=center;verticalAlign=middle;whiteSpace=wrap;rounded=0;" parent="DMlHOETDV7XkjLK8qEzX-1" vertex="1">
                    <mxGeometry x="125" y="1027.5" width="70" height="30" as="geometry"/>
                </mxCell>
                <mxCell id="10" value="" style="whiteSpace=wrap;html=1;aspect=fixed;" parent="DMlHOETDV7XkjLK8qEzX-1" vertex="1">
                    <mxGeometry x="475" y="910" width="160" height="160" as="geometry"/>
                </mxCell>
                <mxCell id="13" value="" style="rounded=1;whiteSpace=wrap;html=1;" parent="DMlHOETDV7XkjLK8qEzX-1" vertex="1">
                    <mxGeometry x="500" y="940" width="110" height="20" as="geometry"/>
                </mxCell>
                <mxCell id="20" style="edgeStyle=none;html=1;exitX=0.25;exitY=0;exitDx=0;exitDy=0;" parent="DMlHOETDV7XkjLK8qEzX-1" source="14" target="17" edge="1">
                    <mxGeometry relative="1" as="geometry"/>
                </mxCell>
                <mxCell id="14" value="" style="rounded=1;whiteSpace=wrap;html=1;" parent="DMlHOETDV7XkjLK8qEzX-1" vertex="1">
                    <mxGeometry x="500" y="977.5" width="110" height="20" as="geometry"/>
                </mxCell>
                <mxCell id="15" value="" style="rounded=1;whiteSpace=wrap;html=1;" parent="DMlHOETDV7XkjLK8qEzX-1" vertex="1">
                    <mxGeometry x="495" y="1012.5" width="110" height="25" as="geometry"/>
                </mxCell>
                <mxCell id="X07TaIWTasU2zoOHf2z8-0" value="opt-ItemKatalog" style="text;html=1;strokeColor=none;fillColor=none;align=center;verticalAlign=middle;whiteSpace=wrap;rounded=0;" parent="DMlHOETDV7XkjLK8qEzX-1" vertex="1">
                    <mxGeometry x="490" y="935" width="120" height="30" as="geometry"/>
                </mxCell>
                <mxCell id="17" value="opt-ItemKatalog" style="text;html=1;strokeColor=none;fillColor=none;align=center;verticalAlign=middle;whiteSpace=wrap;rounded=0;" parent="DMlHOETDV7XkjLK8qEzX-1" vertex="1">
                    <mxGeometry x="500" y="972.5" width="120" height="30" as="geometry"/>
                </mxCell>
                <mxCell id="18" value="opt-ItemKatalog" style="text;html=1;strokeColor=none;fillColor=none;align=center;verticalAlign=middle;whiteSpace=wrap;rounded=0;" parent="DMlHOETDV7XkjLK8qEzX-1" vertex="1">
                    <mxGeometry x="495" y="1010" width="120" height="30" as="geometry"/>
                </mxCell>
                <mxCell id="DMlHOETDV7XkjLK8qEzX-17" value="" style="shape=flexArrow;endArrow=classic;html=1;exitX=0.5;exitY=0;exitDx=0;exitDy=0;entryX=0.5;entryY=1;entryDx=0;entryDy=0;" parent="DMlHOETDV7XkjLK8qEzX-1" source="13" target="DMlHOETDV7XkjLK8qEzX-16" edge="1">
                    <mxGeometry width="50" height="50" relative="1" as="geometry">
                        <mxPoint x="507" y="973.9425000000001" as="sourcePoint"/>
                        <mxPoint x="380" y="670" as="targetPoint"/>
                        <Array as="points"/>
                    </mxGeometry>
                </mxCell>
                <mxCell id="19" value="" style="shape=flexArrow;endArrow=classic;html=1;exitX=1;exitY=0.5;exitDx=0;exitDy=0;entryX=0;entryY=0.5;entryDx=0;entryDy=0;" parent="DMlHOETDV7XkjLK8qEzX-1" source="3" target="10" edge="1">
                    <mxGeometry width="50" height="50" relative="1" as="geometry">
                        <mxPoint x="330" y="810" as="sourcePoint"/>
                        <mxPoint x="320" y="968" as="targetPoint"/>
                    </mxGeometry>
                </mxCell>
                <mxCell id="22" value="" style="whiteSpace=wrap;html=1;aspect=fixed;" parent="DMlHOETDV7XkjLK8qEzX-1" vertex="1">
                    <mxGeometry x="175" y="600" width="150" height="150" as="geometry"/>
                </mxCell>
                <mxCell id="DMlHOETDV7XkjLK8qEzX-3" value="" style="rounded=1;whiteSpace=wrap;html=1;" parent="DMlHOETDV7XkjLK8qEzX-1" vertex="1">
                    <mxGeometry x="195" y="620" width="110" height="30" as="geometry"/>
                </mxCell>
                <mxCell id="DMlHOETDV7XkjLK8qEzX-4" value="ItemKatalog" style="text;html=1;strokeColor=none;fillColor=none;align=center;verticalAlign=middle;whiteSpace=wrap;rounded=0;" parent="DMlHOETDV7XkjLK8qEzX-1" vertex="1">
                    <mxGeometry x="215" y="620" width="70" height="30" as="geometry"/>
                </mxCell>
                <mxCell id="DMlHOETDV7XkjLK8qEzX-9" value="" style="shape=flexArrow;endArrow=classic;html=1;entryX=0.5;entryY=1;entryDx=0;entryDy=0;exitX=0.5;exitY=0;exitDx=0;exitDy=0;" parent="DMlHOETDV7XkjLK8qEzX-1" source="DMlHOETDV7XkjLK8qEzX-4" target="DMlHOETDV7XkjLK8qEzX-6" edge="1">
                    <mxGeometry width="50" height="50" relative="1" as="geometry">
                        <mxPoint x="263" y="740" as="sourcePoint"/>
                        <mxPoint x="380" y="570" as="targetPoint"/>
                    </mxGeometry>
                </mxCell>
                <mxCell id="24" value="" style="rounded=1;whiteSpace=wrap;html=1;" parent="DMlHOETDV7XkjLK8qEzX-1" vertex="1">
                    <mxGeometry x="195" y="670" width="115" height="30" as="geometry"/>
                </mxCell>
                <mxCell id="25" value="ItemKatalog" style="text;html=1;strokeColor=none;fillColor=none;align=center;verticalAlign=middle;whiteSpace=wrap;rounded=0;" parent="DMlHOETDV7XkjLK8qEzX-1" vertex="1">
                    <mxGeometry x="215" y="670" width="70" height="30" as="geometry"/>
                </mxCell>
                <mxCell id="26" value="" style="whiteSpace=wrap;html=1;aspect=fixed;" parent="DMlHOETDV7XkjLK8qEzX-1" vertex="1">
                    <mxGeometry x="125" y="770" width="145" height="145" as="geometry"/>
                </mxCell>
                <mxCell id="28" value="" style="rounded=1;whiteSpace=wrap;html=1;" parent="DMlHOETDV7XkjLK8qEzX-1" vertex="1">
                    <mxGeometry x="140" y="790" width="115" height="30" as="geometry"/>
                </mxCell>
                <mxCell id="27" value="categoriaItem" style="text;html=1;strokeColor=none;fillColor=none;align=center;verticalAlign=middle;whiteSpace=wrap;rounded=0;" parent="DMlHOETDV7XkjLK8qEzX-1" vertex="1">
                    <mxGeometry x="150" y="790" width="70" height="30" as="geometry"/>
                </mxCell>
                <mxCell id="29" value="" style="rounded=1;whiteSpace=wrap;html=1;" parent="DMlHOETDV7XkjLK8qEzX-1" vertex="1">
                    <mxGeometry x="140" y="827.5" width="115" height="30" as="geometry"/>
                </mxCell>
                <mxCell id="30" value="" style="rounded=1;whiteSpace=wrap;html=1;" parent="DMlHOETDV7XkjLK8qEzX-1" vertex="1">
                    <mxGeometry x="140" y="870" width="115" height="30" as="geometry"/>
                </mxCell>
                <mxCell id="31" value="categoriaItem" style="text;html=1;strokeColor=none;fillColor=none;align=center;verticalAlign=middle;whiteSpace=wrap;rounded=0;" parent="DMlHOETDV7XkjLK8qEzX-1" vertex="1">
                    <mxGeometry x="162.5" y="870" width="70" height="30" as="geometry"/>
                </mxCell>
                <mxCell id="32" value="categoriaItem" style="text;html=1;strokeColor=none;fillColor=none;align=center;verticalAlign=middle;whiteSpace=wrap;rounded=0;" parent="DMlHOETDV7XkjLK8qEzX-1" vertex="1">
                    <mxGeometry x="160" y="827.5" width="70" height="30" as="geometry"/>
                </mxCell>
                <mxCell id="33" value="" style="shape=flexArrow;endArrow=classic;html=1;exitX=0.5;exitY=0.5;exitDx=0;exitDy=0;exitPerimeter=0;fillColor=#1ba1e2;strokeColor=#006EAF;" parent="DMlHOETDV7XkjLK8qEzX-1" source="DMlHOETDV7XkjLK8qEzX-2" edge="1">
                    <mxGeometry width="50" height="50" relative="1" as="geometry">
                        <mxPoint x="210" y="830" as="sourcePoint"/>
                        <mxPoint x="120" y="840" as="targetPoint"/>
                    </mxGeometry>
                </mxCell>
                <mxCell id="34" value="" style="shape=flexArrow;endArrow=classic;html=1;entryX=0.552;entryY=0.994;entryDx=0;entryDy=0;entryPerimeter=0;exitX=0.823;exitY=0.065;exitDx=0;exitDy=0;exitPerimeter=0;" parent="DMlHOETDV7XkjLK8qEzX-1" source="28" target="22" edge="1">
                    <mxGeometry width="50" height="50" relative="1" as="geometry">
                        <mxPoint x="210" y="830" as="sourcePoint"/>
                        <mxPoint x="260" y="780" as="targetPoint"/>
                    </mxGeometry>
                </mxCell>
                <mxCell id="35" value="" style="ellipse;whiteSpace=wrap;html=1;" parent="DMlHOETDV7XkjLK8qEzX-1" vertex="1">
                    <mxGeometry x="-160" y="845" width="120" height="80" as="geometry"/>
                </mxCell>
                <mxCell id="36" value="if (var opt in localStorage)" style="text;html=1;strokeColor=none;fillColor=none;align=center;verticalAlign=middle;whiteSpace=wrap;rounded=0;" parent="DMlHOETDV7XkjLK8qEzX-1" vertex="1">
                    <mxGeometry x="-130" y="870" width="60" height="30" as="geometry"/>
                </mxCell>
                <mxCell id="37" value="" style="shape=flexArrow;endArrow=classic;html=1;exitX=0.5;exitY=1;exitDx=0;exitDy=0;entryX=0.692;entryY=0.017;entryDx=0;entryDy=0;entryPerimeter=0;" parent="DMlHOETDV7XkjLK8qEzX-1" source="35" target="38" edge="1">
                    <mxGeometry width="50" height="50" relative="1" as="geometry">
                        <mxPoint x="210" y="810" as="sourcePoint"/>
                        <mxPoint x="260" y="760" as="targetPoint"/>
                    </mxGeometry>
                </mxCell>
                <mxCell id="38" value="Button opt" style="rounded=1;whiteSpace=wrap;html=1;fillColor=#60a917;fontColor=#ffffff;strokeColor=#2D7600;" parent="DMlHOETDV7XkjLK8qEzX-1" vertex="1">
                    <mxGeometry x="-180" y="997.5" width="120" height="60" as="geometry"/>
                </mxCell>
                <mxCell id="41" value="" style="endArrow=classic;html=1;exitX=1.049;exitY=0.391;exitDx=0;exitDy=0;exitPerimeter=0;" parent="DMlHOETDV7XkjLK8qEzX-1" source="38" target="DMlHOETDV7XkjLK8qEzX-13" edge="1">
                    <mxGeometry width="50" height="50" relative="1" as="geometry">
                        <mxPoint x="180" y="810" as="sourcePoint"/>
                        <mxPoint x="230" y="760" as="targetPoint"/>
                    </mxGeometry>
                </mxCell>
            </root>
        </mxGraphModel>
    </diagram>
</mxfile>
